<?xml version="1.0" encoding="UTF-8" standalone="no"?>
<!-- Generator: Adobe Illustrator 16.0.0, SVG Export Plug-In . SVG Version: 6.00 Build 0)  -->

<svg
   xmlns:dc="http://purl.org/dc/elements/1.1/"
   xmlns:cc="http://creativecommons.org/ns#"
   xmlns:rdf="http://www.w3.org/1999/02/22-rdf-syntax-ns#"
   xmlns:svg="http://www.w3.org/2000/svg"
   xmlns="http://www.w3.org/2000/svg"
   xmlns:sodipodi="http://sodipodi.sourceforge.net/DTD/sodipodi-0.dtd"
   xmlns:inkscape="http://www.inkscape.org/namespaces/inkscape"
   version="1.1"
   id="Capa_1"
   x="0px"
   y="0px"
   width="30"
   height="26.865614"
   viewBox="0 0 29.999999 26.865614"
   xml:space="preserve"
   inkscape:version="0.91 r13725"
   sodipodi:docname="blog.svg"><metadata
     id="metadata7095"><rdf:RDF><cc:Work
         rdf:about=""><dc:format>image/svg+xml</dc:format><dc:type
           rdf:resource="http://purl.org/dc/dcmitype/StillImage" /><dc:title></dc:title></cc:Work></rdf:RDF></metadata><defs
     id="defs7093" /><sodipodi:namedview
     pagecolor="#ffffff"
     bordercolor="#666666"
     borderopacity="1"
     objecttolerance="10"
     gridtolerance="10"
     guidetolerance="10"
     inkscape:pageopacity="0"
     inkscape:pageshadow="2"
     inkscape:window-width="1600"
     inkscape:window-height="837"
     id="namedview7091"
     showgrid="false"
     fit-margin-top="0"
     fit-margin-left="0"
     fit-margin-right="0"
     fit-margin-bottom="0"
     inkscape:zoom="3.5210216"
     inkscape:cx="33.512501"
     inkscape:cy="30.01"
     inkscape:window-x="-8"
     inkscape:window-y="-8"
     inkscape:window-maximized="1"
     inkscape:current-layer="Capa_1" /><g
     id="g7051"
     transform="matrix(0.44759694,0,0,0.44759694,0,-1.5670872)"><g
       id="g7053"><g
         id="g7055"><polygon
           points="41.441,29.477 44.576,31.269 50.848,27.685 41.441,22.086 "
           id="polygon7057" /><path
           d="m 60.48,18.052 2.24,-4.031 C 64.511,10.884 59.361,7.3 56.896,5.958 54.431,4.613 48.833,1.701 47.041,5.062 l -3.137,5.376 C 40.767,9.766 37.183,9.318 33.6,9.318 15.008,9.317 0,19.398 0,31.718 c 0,12.318 15.008,22.398 33.6,22.398 0,0 0,0 0.225,0 0.224,2.688 -2.912,7.168 -7.393,9.407 17.698,0 25.761,-13.216 25.761,-13.216 8.959,-4.032 14.783,-10.752 14.783,-18.592 0.448,-5.15 -2.24,-9.854 -6.496,-13.663 z M 15.455,37.99 c -1.792,0 -3.136,-1.346 -3.136,-3.138 0,-1.792 1.344,-3.136 3.136,-3.136 1.792,0 3.136,1.344 3.136,3.136 0,1.792 -1.566,3.138 -3.136,3.138 z m 8.288,0 c -1.792,0 -3.136,-1.346 -3.136,-3.138 0,-1.792 1.344,-3.136 3.136,-3.136 1.792,0 3.136,1.344 3.136,3.136 0,1.792 -1.344,3.138 -3.136,3.138 z m 8.289,0 c -1.792,0 -3.137,-1.346 -3.137,-3.138 0,-1.792 1.345,-3.136 3.137,-3.136 1.792,0 3.136,1.344 3.136,3.136 0,1.792 -1.344,3.138 -3.136,3.138 z m 19.937,-9.633 -6.496,3.584 -5.377,2.911 0,-6.047 0,-7.392 8.961,-15.456 c 0.447,-0.896 3.584,0 6.943,1.792 3.359,1.792 5.6,4.031 4.928,4.928 l -8.959,15.68 z"
           id="path7059"
           inkscape:connector-curvature="0" /></g></g></g><g
     id="g7061"
     transform="translate(0,-36.657387)" /><g
     id="g7063"
     transform="translate(0,-36.657387)" /><g
     id="g7065"
     transform="translate(0,-36.657387)" /><g
     id="g7067"
     transform="translate(0,-36.657387)" /><g
     id="g7069"
     transform="translate(0,-36.657387)" /><g
     id="g7071"
     transform="translate(0,-36.657387)" /><g
     id="g7073"
     transform="translate(0,-36.657387)" /><g
     id="g7075"
     transform="translate(0,-36.657387)" /><g
     id="g7077"
     transform="translate(0,-36.657387)" /><g
     id="g7079"
     transform="translate(0,-36.657387)" /><g
     id="g7081"
     transform="translate(0,-36.657387)" /><g
     id="g7083"
     transform="translate(0,-36.657387)" /><g
     id="g7085"
     transform="translate(0,-36.657387)" /><g
     id="g7087"
     transform="translate(0,-36.657387)" /><g
     id="g7089"
     transform="translate(0,-36.657387)" /></svg>