<?xml version="1.0" encoding="UTF-8" standalone="no"?>
<!-- Generator: Adobe Illustrator 18.0.0, SVG Export Plug-In . SVG Version: 6.00 Build 0)  -->

<svg
   xmlns:dc="http://purl.org/dc/elements/1.1/"
   xmlns:cc="http://creativecommons.org/ns#"
   xmlns:rdf="http://www.w3.org/1999/02/22-rdf-syntax-ns#"
   xmlns:svg="http://www.w3.org/2000/svg"
   xmlns="http://www.w3.org/2000/svg"
   xmlns:sodipodi="http://sodipodi.sourceforge.net/DTD/sodipodi-0.dtd"
   xmlns:inkscape="http://www.inkscape.org/namespaces/inkscape"
   version="1.1"
   id="Capa_1"
   x="0px"
   y="0px"
   viewBox="0 0 30 19.62497"
   xml:space="preserve"
   inkscape:version="0.91 r13725"
   sodipodi:docname="contact.svg"
   width="30"
   height="19.624969"><metadata
     id="metadata8256"><rdf:RDF><cc:Work
         rdf:about=""><dc:format>image/svg+xml</dc:format><dc:type
           rdf:resource="http://purl.org/dc/dcmitype/StillImage" /><dc:title></dc:title></cc:Work></rdf:RDF></metadata><defs
     id="defs8254" /><sodipodi:namedview
     pagecolor="#ffffff"
     bordercolor="#666666"
     borderopacity="1"
     objecttolerance="10"
     gridtolerance="10"
     guidetolerance="10"
     inkscape:pageopacity="0"
     inkscape:pageshadow="2"
     inkscape:window-width="1600"
     inkscape:window-height="837"
     id="namedview8252"
     showgrid="false"
     fit-margin-top="0"
     fit-margin-left="0"
     fit-margin-right="0"
     fit-margin-bottom="0"
     inkscape:zoom="0.47764578"
     inkscape:cx="247.045"
     inkscape:cy="161.608"
     inkscape:window-x="-8"
     inkscape:window-y="-8"
     inkscape:window-maximized="1"
     inkscape:current-layer="Capa_1" /><path
     id="XMLID_234_"
     d="M 28.433177,0 1.5668837,0 C 0.70171568,0 0,0.7016 0,1.56689 l 0,16.4912 c 0,0.86523 0.70171568,1.56688 1.5668837,1.56688 l 26.8662323,0 C 29.298345,19.62497 30,18.92332 30,18.05809 L 30,1.56689 C 30.000061,0.7016 29.298345,0 28.433177,0 Z m -1.027406,15.55178 c 0.424843,0.35301 0.483374,0.98344 0.130786,1.40822 -0.197697,0.23826 -0.482889,0.36134 -0.769902,0.36134 -0.225141,0 -0.451679,-0.0758 -0.638204,-0.23049 l -7.052191,-5.85356 -3.4376,2.85301 c -0.185068,0.1538 -0.412031,0.23042 -0.63863,0.23042 -0.226538,0 -0.453622,-0.0766 -0.63869,-0.23042 L 10.923862,11.23729 3.8716102,17.09085 C 3.4472534,17.44386 2.8169419,17.38576 2.4633214,16.96 2.1109152,16.53522 2.1694472,15.90479 2.5942897,15.55178 L 9.3580104,9.9375 2.5942897,4.32323 C 2.1694472,3.97022 2.1109152,3.33979 2.4633214,2.915 2.8169419,2.49022 3.4472534,2.43212 3.8716102,2.78416 L 14.99997,12.02104 26.128451,2.7841 c 0.424781,-0.35204 1.055579,-0.29394 1.408106,0.13084 0.352588,0.42485 0.293996,1.05522 -0.130786,1.40823 l -6.763721,5.61427 6.763721,5.61434 z"
     inkscape:connector-curvature="0" /><g
     id="g8222"
     transform="translate(0,-389.02803)" /><g
     id="g8224"
     transform="translate(0,-389.02803)" /><g
     id="g8226"
     transform="translate(0,-389.02803)" /><g
     id="g8228"
     transform="translate(0,-389.02803)" /><g
     id="g8230"
     transform="translate(0,-389.02803)" /><g
     id="g8232"
     transform="translate(0,-389.02803)" /><g
     id="g8234"
     transform="translate(0,-389.02803)" /><g
     id="g8236"
     transform="translate(0,-389.02803)" /><g
     id="g8238"
     transform="translate(0,-389.02803)" /><g
     id="g8240"
     transform="translate(0,-389.02803)" /><g
     id="g8242"
     transform="translate(0,-389.02803)" /><g
     id="g8244"
     transform="translate(0,-389.02803)" /><g
     id="g8246"
     transform="translate(0,-389.02803)" /><g
     id="g8248"
     transform="translate(0,-389.02803)" /><g
     id="g8250"
     transform="translate(0,-389.02803)" /></svg>