<?xml version="1.0" encoding="UTF-8" standalone="no"?>
<!-- Generator: Adobe Illustrator 18.0.0, SVG Export Plug-In . SVG Version: 6.00 Build 0)  -->

<svg
   xmlns:dc="http://purl.org/dc/elements/1.1/"
   xmlns:cc="http://creativecommons.org/ns#"
   xmlns:rdf="http://www.w3.org/1999/02/22-rdf-syntax-ns#"
   xmlns:svg="http://www.w3.org/2000/svg"
   xmlns="http://www.w3.org/2000/svg"
   xmlns:sodipodi="http://sodipodi.sourceforge.net/DTD/sodipodi-0.dtd"
   xmlns:inkscape="http://www.inkscape.org/namespaces/inkscape"
   version="1.1"
   id="Capa_1"
   x="0px"
   y="0px"
   viewBox="0 0 29.999999 35.627559"
   xml:space="preserve"
   inkscape:version="0.91 r13725"
   sodipodi:docname="beverage2.svg"
   width="30"
   height="35.62756"><metadata
     id="metadata4173"><rdf:RDF><cc:Work
         rdf:about=""><dc:format>image/svg+xml</dc:format><dc:type
           rdf:resource="http://purl.org/dc/dcmitype/StillImage" /><dc:title></dc:title></cc:Work></rdf:RDF></metadata><defs
     id="defs4171" /><sodipodi:namedview
     pagecolor="#ffffff"
     bordercolor="#666666"
     borderopacity="1"
     objecttolerance="10"
     gridtolerance="10"
     guidetolerance="10"
     inkscape:pageopacity="0"
     inkscape:pageshadow="2"
     inkscape:window-width="1600"
     inkscape:window-height="837"
     id="namedview4169"
     showgrid="false"
     fit-margin-top="0"
     fit-margin-left="0"
     fit-margin-right="0"
     fit-margin-bottom="0"
     inkscape:zoom="1.05"
     inkscape:cx="207.01201"
     inkscape:cy="207.7513"
     inkscape:window-x="-8"
     inkscape:window-y="-8"
     inkscape:window-maximized="1"
     inkscape:current-layer="Capa_1" /><path
     d="m 25.942264,13.74529 -3.754565,0 0,-0.6138 c 1.222828,-0.90567 2.017275,-2.35842 2.017275,-3.99347 0,-2.42232 -1.743015,-4.44532 -4.040636,-4.88058 C 19.496478,1.79157 17.246464,8e-5 14.588212,0 13.116993,8e-5 11.705046,0.56896 10.643513,1.55883 10.264477,1.45973 9.872544,1.40869 9.478581,1.40869 7.605574,1.40869 5.971683,2.54507 5.25984,4.17918 5.16274,4.17318 5.065141,4.17018 4.967321,4.17018 2.228349,4.17018 0,6.39853 0,9.1375 c 0,1.5081 0.67641,2.86034 1.740769,3.7721 l 0,20.54417 c 0,1.19559 0.978204,2.17379 2.173787,2.17379 l 16.099356,0 c 1.195583,0 2.173787,-0.9782 2.173787,-2.17379 l 0,-3.18822 3.754565,0 C 28.179671,30.26555 30,28.44522 30,26.20782 l 0,-8.40531 c 0,-2.23741 -1.820329,-4.05767 -4.057736,-4.05767 z m -6.704611,-2.39341 -12.719263,0 0,4.42373 c 0,0.76032 -0.616413,1.37673 -1.376732,1.37673 -0.760318,0 -1.376731,-0.61641 -1.376731,-1.37673 l 0,-4.78023 C 3.156774,10.60033 2.753464,9.91559 2.753464,9.13795 c 0,-1.22072 0.99313,-2.21386 2.213857,-2.21386 0.274766,0 0.543664,0.0503 0.799374,0.14942 C 6.175077,7.23183 6.63447,7.18647 7.003942,6.95112 7.373413,6.71577 7.608834,6.31869 7.638035,5.88169 7.702455,4.91747 8.510883,4.16215 9.478581,4.16215 c 0.315634,0 0.614819,0.0768 0.889079,0.22818 0.606849,0.33491 1.368036,0.16644 1.776926,-0.39324 0.577358,-0.79032 1.468031,-1.24362 2.443626,-1.24362 1.614182,0 2.940844,1.26137 3.02026,2.87164 0.01819,0.36955 0.18441,0.71626 0.461205,0.96183 0.276723,0.24564 0.640688,0.36983 1.009797,0.34375 0.06405,-0.004 0.114341,-0.007 0.158179,-0.007 1.220726,0 2.213857,0.99313 2.213857,2.21385 0,1.22073 -0.993131,2.21386 -2.213857,2.21386 z m 6.994449,14.85646 c 0,0.15441 -0.135426,0.28984 -0.289838,0.28984 l -3.754565,0 0,-8.98499 3.754565,0 c 0.154412,0 0.289838,0.13543 0.289838,0.28984 l 0,8.40531 z"
     id="path4137"
     inkscape:connector-curvature="0" /><g
     id="g4139"
     transform="translate(-38.836,-456.06699)" /><g
     id="g4141"
     transform="translate(-38.836,-456.06699)" /><g
     id="g4143"
     transform="translate(-38.836,-456.06699)" /><g
     id="g4145"
     transform="translate(-38.836,-456.06699)" /><g
     id="g4147"
     transform="translate(-38.836,-456.06699)" /><g
     id="g4149"
     transform="translate(-38.836,-456.06699)" /><g
     id="g4151"
     transform="translate(-38.836,-456.06699)" /><g
     id="g4153"
     transform="translate(-38.836,-456.06699)" /><g
     id="g4155"
     transform="translate(-38.836,-456.06699)" /><g
     id="g4157"
     transform="translate(-38.836,-456.06699)" /><g
     id="g4159"
     transform="translate(-38.836,-456.06699)" /><g
     id="g4161"
     transform="translate(-38.836,-456.06699)" /><g
     id="g4163"
     transform="translate(-38.836,-456.06699)" /><g
     id="g4165"
     transform="translate(-38.836,-456.06699)" /><g
     id="g4167"
     transform="translate(-38.836,-456.06699)" /></svg>