<?xml version="1.0" encoding="UTF-8" standalone="no"?>
<!-- Generator: Adobe Illustrator 16.0.0, SVG Export Plug-In . SVG Version: 6.00 Build 0)  -->

<svg
   xmlns:dc="http://purl.org/dc/elements/1.1/"
   xmlns:cc="http://creativecommons.org/ns#"
   xmlns:rdf="http://www.w3.org/1999/02/22-rdf-syntax-ns#"
   xmlns:svg="http://www.w3.org/2000/svg"
   xmlns="http://www.w3.org/2000/svg"
   xmlns:sodipodi="http://sodipodi.sourceforge.net/DTD/sodipodi-0.dtd"
   xmlns:inkscape="http://www.inkscape.org/namespaces/inkscape"
   version="1.1"
   id="Capa_1"
   x="0px"
   y="0px"
   width="30"
   height="34.134666"
   viewBox="0 0 30 34.134667"
   xml:space="preserve"
   inkscape:version="0.91 r13725"
   sodipodi:docname="drink2.svg"><metadata
     id="metadata4778"><rdf:RDF><cc:Work
         rdf:about=""><dc:format>image/svg+xml</dc:format><dc:type
           rdf:resource="http://purl.org/dc/dcmitype/StillImage" /><dc:title></dc:title></cc:Work></rdf:RDF></metadata><defs
     id="defs4776" /><sodipodi:namedview
     pagecolor="#ffffff"
     bordercolor="#666666"
     borderopacity="1"
     objecttolerance="10"
     gridtolerance="10"
     guidetolerance="10"
     inkscape:pageopacity="0"
     inkscape:pageshadow="2"
     inkscape:window-width="1600"
     inkscape:window-height="837"
     id="namedview4774"
     showgrid="false"
     fit-margin-top="0"
     fit-margin-left="0"
     fit-margin-right="0"
     fit-margin-bottom="0"
     inkscape:zoom="1.07"
     inkscape:cx="78.780001"
     inkscape:cy="89.6365"
     inkscape:window-x="-8"
     inkscape:window-y="-8"
     inkscape:window-maximized="1"
     inkscape:current-layer="Capa_1" /><g
     id="g4736"
     transform="matrix(0.19040607,0,0,0.19040607,-2.0672387,0)"><g
       id="g4738"><path
         d="m 139.713,85.806 -9.47,0 c -3.728,0 -6.187,1.682 -6.187,4.345 l 0,36.409 c 0,1.865 1.511,3.375 3.375,3.375 1.863,0 3.375,-1.51 3.375,-3.375 l 0,-33.912 c 0.406,-0.061 8.906,-0.094 8.906,-0.094 4.484,0 8.133,3.648 8.133,8.133 l 0,15.336 c 0,1.916 -0.678,3.777 -1.912,5.242 -1.198,1.427 -1.014,3.557 0.412,4.756 1.428,1.199 3.557,1.015 4.756,-0.412 2.253,-2.68 3.494,-6.084 3.494,-9.586 l 0,-15.336 c 0.001,-8.205 -6.675,-14.881 -14.882,-14.881 z"
         id="path4740"
         inkscape:connector-curvature="0" /><path
         d="m 139.713,71.971 -7.67,0 c -0.41,0 -0.822,0.01 -1.236,0.028 l 0,-13.529 c 0,-0.439 -0.019,-0.881 -0.053,-1.324 5.178,-4.532 8.108,-10.925 8.108,-17.83 0,-7.137 -3.2,-13.861 -8.779,-18.448 -5.01,-4.118 -11.378,-5.98 -17.712,-5.233 C 107.992,11.647 102.373,9.373 96.524,9.223 91.85,3.417 84.812,0 77.354,0 71.516,0 65.991,2.01 61.576,5.7 56.624,4.322 50.746,4.463 48.646,4.721 c -9.454,1.106 -17.385,6.428 -21.19,14.128 -9.719,2.656 -16.599,11.53 -16.599,21.749 0,6.664 2.984,12.974 8.074,17.255 -0.011,0.199 -0.017,0.405 -0.017,0.616 l 0,103.607 c 0,9.482 7.709,17.197 17.185,17.197 l 77.524,0 c 9.477,0 17.186,-7.715 17.186,-17.197 l 0,-16.844 c 0.435,-0.026 0.848,-0.049 1.236,-0.049 0.066,0 0.133,-0.002 0.198,-0.006 l 7.573,-0.445 c 15.779,-0.055 28.599,-12.912 28.599,-28.709 l 0,-15.338 C 168.414,84.853 155.539,71.971 139.713,71.971 Z m 21.951,44.052 c 0,12.109 -9.847,21.961 -21.95,21.961 -0.066,0 -10.803,0.439 -11.658,0.514 -1,0.088 -2.006,0.078 -2.777,0.719 -0.773,0.642 -1.221,1.594 -1.221,2.598 l 0,20.263 c 0,5.761 -4.68,10.446 -10.435,10.446 l -77.524,0 c -5.754,0 -10.435,-4.686 -10.435,-10.446 l 0,-102.36 15.576,0 c -0.013,1.846 -0.036,3.145 -0.061,4.493 -0.044,2.445 -0.094,5.215 -0.094,11.824 0,15.171 4.559,24.229 12.194,24.229 4.531,0 7.593,-2.07 9.361,-6.33 1.546,-3.727 2.235,-9.562 2.235,-18.924 0,-1.319 -0.017,-2.638 -0.033,-3.929 -0.05,-3.912 -0.125,-9.718 0.729,-11.361 l 30.156,0 c 1.865,0 3.375,-1.511 3.375,-3.375 0,-1.864 -1.51,-3.375 -3.375,-3.375 l -30.497,0 c -1.675,0 -3.171,0.618 -4.325,1.788 -2.985,3.024 -2.909,8.931 -2.813,16.41 0.016,1.263 0.033,2.552 0.033,3.842 0,8.204 -0.563,13.548 -1.72,16.336 -0.764,1.842 -1.483,2.168 -3.127,2.168 -2.676,0 -5.444,-6.538 -5.444,-17.479 0,-6.547 0.049,-9.286 0.092,-11.702 0.037,-2.076 0.073,-4.035 0.073,-7.99 0,-1.864 -1.511,-3.375 -3.375,-3.375 l -21.004,0 C 19.838,49.961 17.608,45.41 17.608,40.6 c 0,-7.587 5.412,-14.115 12.869,-15.524 1.133,-0.214 2.078,-0.991 2.507,-2.061 2.52,-6.292 9.134,-10.858 16.85,-11.632 5.779,-0.62 10.383,0.951 11.254,1.303 1.255,0.507 2.688,0.216 3.647,-0.737 3.367,-3.352 7.849,-5.198 12.621,-5.198 5.851,0 11.352,2.91 14.716,7.783 0.664,0.963 1.778,1.522 2.948,1.454 5.137,-0.26 10.148,1.77 13.757,5.568 0.796,0.838 1.965,1.208 3.101,0.987 4.928,-0.973 10.002,0.319 13.922,3.541 4.012,3.3 6.314,8.123 6.314,13.234 0,5.403 -2.523,10.375 -6.922,13.651 l -8.195,0 c -1.863,0 -3.375,1.511 -3.375,3.375 0,1.864 1.512,3.375 3.375,3.375 l 7.062,0 0,14.26 c 0,2.316 0.658,4.8 5.553,4.8 1.027,0 10.102,-0.057 10.102,-0.057 12.104,0 21.951,9.854 21.951,21.965 l -0.001,15.336 0,0 z"
         id="path4742"
         inkscape:connector-curvature="0" /></g></g><g
     id="g4744"
     transform="translate(-10.857,-145.13833)" /><g
     id="g4746"
     transform="translate(-10.857,-145.13833)" /><g
     id="g4748"
     transform="translate(-10.857,-145.13833)" /><g
     id="g4750"
     transform="translate(-10.857,-145.13833)" /><g
     id="g4752"
     transform="translate(-10.857,-145.13833)" /><g
     id="g4754"
     transform="translate(-10.857,-145.13833)" /><g
     id="g4756"
     transform="translate(-10.857,-145.13833)" /><g
     id="g4758"
     transform="translate(-10.857,-145.13833)" /><g
     id="g4760"
     transform="translate(-10.857,-145.13833)" /><g
     id="g4762"
     transform="translate(-10.857,-145.13833)" /><g
     id="g4764"
     transform="translate(-10.857,-145.13833)" /><g
     id="g4766"
     transform="translate(-10.857,-145.13833)" /><g
     id="g4768"
     transform="translate(-10.857,-145.13833)" /><g
     id="g4770"
     transform="translate(-10.857,-145.13833)" /><g
     id="g4772"
     transform="translate(-10.857,-145.13833)" /></svg>