<?xml version="1.0" encoding="UTF-8" standalone="no"?>
<!-- Generator: Adobe Illustrator 16.0.0, SVG Export Plug-In . SVG Version: 6.00 Build 0)  -->

<svg
   xmlns:dc="http://purl.org/dc/elements/1.1/"
   xmlns:cc="http://creativecommons.org/ns#"
   xmlns:rdf="http://www.w3.org/1999/02/22-rdf-syntax-ns#"
   xmlns:svg="http://www.w3.org/2000/svg"
   xmlns="http://www.w3.org/2000/svg"
   xmlns:sodipodi="http://sodipodi.sourceforge.net/DTD/sodipodi-0.dtd"
   xmlns:inkscape="http://www.inkscape.org/namespaces/inkscape"
   version="1.1"
   id="Capa_1"
   x="0px"
   y="0px"
   width="30"
   height="29.850706"
   viewBox="0 0 30 29.850706"
   xml:space="preserve"
   inkscape:version="0.91 r13725"
   sodipodi:docname="location.svg"><metadata
     id="metadata8845"><rdf:RDF><cc:Work
         rdf:about=""><dc:format>image/svg+xml</dc:format><dc:type
           rdf:resource="http://purl.org/dc/dcmitype/StillImage" /><dc:title></dc:title></cc:Work></rdf:RDF></metadata><defs
     id="defs8843" /><sodipodi:namedview
     pagecolor="#ffffff"
     bordercolor="#666666"
     borderopacity="1"
     objecttolerance="10"
     gridtolerance="10"
     guidetolerance="10"
     inkscape:pageopacity="0"
     inkscape:pageshadow="2"
     inkscape:window-width="1600"
     inkscape:window-height="837"
     id="namedview8841"
     showgrid="false"
     fit-margin-top="0"
     fit-margin-left="0"
     fit-margin-right="0"
     fit-margin-bottom="0"
     inkscape:zoom="4.9346575"
     inkscape:cx="23.9125"
     inkscape:cy="23.793499"
     inkscape:window-x="-8"
     inkscape:window-y="-8"
     inkscape:window-maximized="1"
     inkscape:current-layer="Capa_1" /><g
     id="g8799"
     transform="matrix(0.62728698,0,0,0.62728698,0,-0.07464715)"><g
       id="g8801"><g
         id="g8803"><path
           d="m 36.439,12.646 c 0,-6.919 -5.608,-12.527 -12.528,-12.527 -6.92,0 -12.527,5.608 -12.527,12.527 0,9.913 12.527,24.582 12.527,24.582 0,0 12.528,-14.72 12.528,-24.582 z M 17.733,11.898 c 0,-3.413 2.767,-6.179 6.179,-6.179 3.412,0 6.179,2.766 6.179,6.179 0,3.413 -2.767,6.179 -6.179,6.179 -3.412,0 -6.179,-2.766 -6.179,-6.179 z"
           id="path8805"
           inkscape:connector-curvature="0" /><circle
           cx="23.910999"
           cy="11.898"
           r="3.0380001"
           id="circle8807" /><path
           d="m 30.994,32.87 c -1.021,1.476 -1.979,2.761 -2.777,3.793 7.916,0.476 13.104,2.185 15.034,3.456 -2.261,1.491 -8.979,3.587 -19.338,3.587 -10.358,0 -17.077,-2.097 -19.338,-3.587 1.93,-1.271 7.114,-2.979 15.022,-3.455 -0.8,-1.032 -1.759,-2.316 -2.781,-3.792 C 7.075,33.831 0,36.713 0,40.118 c 0,4.19 10.707,7.588 23.913,7.588 13.207,0 23.912,-3.396 23.912,-7.588 0.002,-3.407 -7.081,-6.29 -16.831,-7.248 z"
           id="path8809"
           inkscape:connector-curvature="0" /></g></g></g><g
     id="g8811"
     transform="translate(0,-17.855294)" /><g
     id="g8813"
     transform="translate(0,-17.855294)" /><g
     id="g8815"
     transform="translate(0,-17.855294)" /><g
     id="g8817"
     transform="translate(0,-17.855294)" /><g
     id="g8819"
     transform="translate(0,-17.855294)" /><g
     id="g8821"
     transform="translate(0,-17.855294)" /><g
     id="g8823"
     transform="translate(0,-17.855294)" /><g
     id="g8825"
     transform="translate(0,-17.855294)" /><g
     id="g8827"
     transform="translate(0,-17.855294)" /><g
     id="g8829"
     transform="translate(0,-17.855294)" /><g
     id="g8831"
     transform="translate(0,-17.855294)" /><g
     id="g8833"
     transform="translate(0,-17.855294)" /><g
     id="g8835"
     transform="translate(0,-17.855294)" /><g
     id="g8837"
     transform="translate(0,-17.855294)" /><g
     id="g8839"
     transform="translate(0,-17.855294)" /></svg>