<?xml version="1.0" encoding="UTF-8" standalone="no"?>
<!-- Generator: Adobe Illustrator 16.0.0, SVG Export Plug-In . SVG Version: 6.00 Build 0)  -->

<svg
   xmlns:dc="http://purl.org/dc/elements/1.1/"
   xmlns:cc="http://creativecommons.org/ns#"
   xmlns:rdf="http://www.w3.org/1999/02/22-rdf-syntax-ns#"
   xmlns:svg="http://www.w3.org/2000/svg"
   xmlns="http://www.w3.org/2000/svg"
   xmlns:sodipodi="http://sodipodi.sourceforge.net/DTD/sodipodi-0.dtd"
   xmlns:inkscape="http://www.inkscape.org/namespaces/inkscape"
   version="1.1"
   id="Capa_1"
   x="0px"
   y="0px"
   width="30"
   height="30"
   viewBox="0 0 30 30"
   xml:space="preserve"
   inkscape:version="0.91 r13725"
   sodipodi:docname="login.svg"><metadata
     id="metadata6508"><rdf:RDF><cc:Work
         rdf:about=""><dc:format>image/svg+xml</dc:format><dc:type
           rdf:resource="http://purl.org/dc/dcmitype/StillImage" /><dc:title></dc:title></cc:Work></rdf:RDF></metadata><defs
     id="defs6506" /><sodipodi:namedview
     pagecolor="#ffffff"
     bordercolor="#666666"
     borderopacity="1"
     objecttolerance="10"
     gridtolerance="10"
     guidetolerance="10"
     inkscape:pageopacity="0"
     inkscape:pageshadow="2"
     inkscape:window-width="1600"
     inkscape:window-height="837"
     id="namedview6504"
     showgrid="false"
     fit-margin-top="0"
     fit-margin-left="0"
     fit-margin-right="0"
     fit-margin-bottom="0"
     inkscape:zoom="1"
     inkscape:cx="16"
     inkscape:cy="16"
     inkscape:window-x="-8"
     inkscape:window-y="-8"
     inkscape:window-maximized="1"
     inkscape:current-layer="Capa_1" /><g
     id="g6467"
     transform="scale(0.9375,0.9375)"><g
       id="User"><g
         id="g6470"><path
           d="m 16,22 c 4.963,0 9,-4.936 9,-11 C 25,4.936 20.962,0 16,0 13.553,0 11.266,1.174 9.562,3.305 7.909,5.37 7,8.104 7,11.001 7,17.064 11.037,22 16,22 Z M 16,2.001 c 3.859,0 7,4.037 7,9 0,4.962 -3.141,9 -7,9 -3.859,0 -7,-4.038 -7.001,-9 0,-4.963 3.141,-9 7.001,-9 z M 23,20 c -0.553,0 -1,0.447 -1,1 0,0.553 0.447,1 1,1 3.859,0 7,3.141 7,7 0,0.551 -0.449,1 -1,1 L 3,30 c -0.551,0 -1,-0.449 -1,-1 0,-3.859 3.141,-7 7,-7 0.553,0 1,-0.447 1,-1 0,-0.553 -0.447,-1 -1,-1 -4.963,0 -9,4.037 -9,9 0,1.654 1.346,3 3,3 l 26,0 c 1.654,0 3,-1.346 3,-3 0,-4.962 -4.037,-9 -9,-9 z"
           id="path6472"
           inkscape:connector-curvature="0" /></g></g></g><g
     id="g6474"
     transform="translate(0,-2)" /><g
     id="g6476"
     transform="translate(0,-2)" /><g
     id="g6478"
     transform="translate(0,-2)" /><g
     id="g6480"
     transform="translate(0,-2)" /><g
     id="g6482"
     transform="translate(0,-2)" /><g
     id="g6484"
     transform="translate(0,-2)" /><g
     id="g6486"
     transform="translate(0,-2)" /><g
     id="g6488"
     transform="translate(0,-2)" /><g
     id="g6490"
     transform="translate(0,-2)" /><g
     id="g6492"
     transform="translate(0,-2)" /><g
     id="g6494"
     transform="translate(0,-2)" /><g
     id="g6496"
     transform="translate(0,-2)" /><g
     id="g6498"
     transform="translate(0,-2)" /><g
     id="g6500"
     transform="translate(0,-2)" /><g
     id="g6502"
     transform="translate(0,-2)" /></svg>