<?xml version="1.0" encoding="UTF-8" standalone="no"?>
<!-- Generator: Adobe Illustrator 18.0.0, SVG Export Plug-In . SVG Version: 6.00 Build 0)  -->

<svg
   xmlns:dc="http://purl.org/dc/elements/1.1/"
   xmlns:cc="http://creativecommons.org/ns#"
   xmlns:rdf="http://www.w3.org/1999/02/22-rdf-syntax-ns#"
   xmlns:svg="http://www.w3.org/2000/svg"
   xmlns="http://www.w3.org/2000/svg"
   xmlns:sodipodi="http://sodipodi.sourceforge.net/DTD/sodipodi-0.dtd"
   xmlns:inkscape="http://www.inkscape.org/namespaces/inkscape"
   version="1.1"
   id="Capa_1"
   x="0px"
   y="0px"
   viewBox="0 0 309.143 309.143"
   style="enable-background:new 0 0 309.143 309.143;"
   xml:space="preserve"
   inkscape:version="0.91 r13725"
   sodipodi:docname="prev-arrow.svg"><metadata
     id="metadata39"><rdf:RDF><cc:Work
         rdf:about=""><dc:format>image/svg+xml</dc:format><dc:type
           rdf:resource="http://purl.org/dc/dcmitype/StillImage" /><dc:title></dc:title></cc:Work></rdf:RDF></metadata><defs
     id="defs37" /><sodipodi:namedview
     pagecolor="#ffffff"
     bordercolor="#666666"
     borderopacity="1"
     objecttolerance="10"
     gridtolerance="10"
     guidetolerance="10"
     inkscape:pageopacity="0"
     inkscape:pageshadow="2"
     inkscape:window-width="1600"
     inkscape:window-height="837"
     id="namedview35"
     showgrid="false"
     inkscape:zoom="0.76340074"
     inkscape:cx="154.5715"
     inkscape:cy="154.5715"
     inkscape:window-x="-8"
     inkscape:window-y="-8"
     inkscape:window-maximized="1"
     inkscape:current-layer="Capa_1" /><path
     style="fill:#030303;fill-opacity:1"
     d="M 64.528101,154.8498 206.33435,307.00349 c 2.82415,3.03023 7.57021,3.19729 10.59944,0.3731 l 14.63177,-13.63672 c 1.45559,-1.35563 2.31222,-3.23466 2.38219,-5.22243 0.07,-1.98776 -0.65242,-3.92237 -2.00909,-5.377 L 108.8813,151.10476 240.91798,28.047427 c 1.45559,-1.355634 2.31222,-3.234662 2.38219,-5.222431 0.07,-1.987769 -0.65242,-3.922379 -2.00909,-5.377004 L 227.65436,2.8162177 c -1.41159,-1.514595 -3.30462,-2.3146838 -5.22243,-2.3821911 -1.91781,-0.067507 -3.86237,0.5964972 -5.377,2.0090893 L 64.901238,144.24937 c -3.031224,2.82411 -3.198286,7.57017 -0.373137,10.60043 z"
     id="path3"
     inkscape:connector-curvature="0" /><g
     id="g5" /><g
     id="g7" /><g
     id="g9" /><g
     id="g11" /><g
     id="g13" /><g
     id="g15" /><g
     id="g17" /><g
     id="g19" /><g
     id="g21" /><g
     id="g23" /><g
     id="g25" /><g
     id="g27" /><g
     id="g29" /><g
     id="g31" /><g
     id="g33" /></svg>