<?xml version="1.0" encoding="UTF-8" standalone="no"?>
<!-- Generator: Adobe Illustrator 16.0.0, SVG Export Plug-In . SVG Version: 6.00 Build 0)  -->

<svg
   xmlns:dc="http://purl.org/dc/elements/1.1/"
   xmlns:cc="http://creativecommons.org/ns#"
   xmlns:rdf="http://www.w3.org/1999/02/22-rdf-syntax-ns#"
   xmlns:svg="http://www.w3.org/2000/svg"
   xmlns="http://www.w3.org/2000/svg"
   xmlns:sodipodi="http://sodipodi.sourceforge.net/DTD/sodipodi-0.dtd"
   xmlns:inkscape="http://www.inkscape.org/namespaces/inkscape"
   version="1.1"
   id="Capa_1"
   x="0px"
   y="0px"
   width="30"
   height="19.855907"
   viewBox="0 0 30 19.855908"
   xml:space="preserve"
   inkscape:version="0.91 r13725"
   sodipodi:docname="story.svg"><metadata
     id="metadata7678"><rdf:RDF><cc:Work
         rdf:about=""><dc:format>image/svg+xml</dc:format><dc:type
           rdf:resource="http://purl.org/dc/dcmitype/StillImage" /><dc:title></dc:title></cc:Work></rdf:RDF></metadata><defs
     id="defs7676" /><sodipodi:namedview
     pagecolor="#ffffff"
     bordercolor="#666666"
     borderopacity="1"
     objecttolerance="10"
     gridtolerance="10"
     guidetolerance="10"
     inkscape:pageopacity="0"
     inkscape:pageshadow="2"
     inkscape:window-width="1600"
     inkscape:window-height="837"
     id="namedview7674"
     showgrid="false"
     fit-margin-top="0"
     fit-margin-left="0"
     fit-margin-right="0"
     fit-margin-bottom="0"
     inkscape:zoom="0.74135505"
     inkscape:cx="159.168"
     inkscape:cy="105.348"
     inkscape:window-x="-8"
     inkscape:window-y="-8"
     inkscape:window-maximized="1"
     inkscape:current-layer="Capa_1" /><g
     id="g7638"
     transform="matrix(0.09424005,0,0,0.09424005,0,-5.0720937)"><g
       id="g7640"><path
         d="m 302.137,74.432 -21.031,0 C 250.61,60.818 224.717,53.821 204.078,53.821 c -26.731,0 -39.245,11.649 -44.906,20.535 -5.658,-8.886 -18.17,-20.535 -44.906,-20.535 -20.638,0 -46.533,7.003 -77.037,20.611 l -21.029,0 C 7.254,74.432 0,81.685 0,90.632 l 0,157.684 c 0,8.949 7.254,16.2 16.2,16.2 l 285.937,0 c 8.948,0 16.199,-7.251 16.199,-16.2 l 0,-157.684 c 0,-8.946 -7.251,-16.2 -16.199,-16.2 z m -147.351,9.833 c -0.048,0.25 -0.069,0.503 -0.069,0.757 l 0,148.718 c -7.084,-8.18 -18.95,-14.438 -38.804,-14.438 -35.44,0 -79.927,19.432 -95.813,26.947 l 0,-154.721 C 33.708,84.601 46.41,78.941 58.256,74.432 80.001,66.161 98.782,61.921 114.26,61.921 c 18.992,0 29.37,6.354 34.986,12.511 3.241,3.554 4.91,7.038 5.698,9.192 -0.092,0.361 -0.153,0.619 -0.158,0.641 z m 143.448,161.984 c -15.884,-7.516 -60.371,-26.947 -95.809,-26.947 -19.859,0 -31.72,6.254 -38.805,14.438 -0.261,0.3 -0.562,0.58 -0.804,0.886 l 0,-149.146 c 0.084,-0.351 0.269,-0.981 0.583,-1.825 0.799,-2.149 2.499,-5.647 5.776,-9.218 5.648,-6.157 16.026,-12.512 34.9,-12.512 15.478,0 34.251,4.24 56.004,12.512 11.854,4.509 24.548,10.17 38.153,17.097 l 0,154.715 0.002,0 z"
         id="path7642"
         inkscape:connector-curvature="0" /></g></g><g
     id="g7644"
     transform="translate(0,-244.66009)" /><g
     id="g7646"
     transform="translate(0,-244.66009)" /><g
     id="g7648"
     transform="translate(0,-244.66009)" /><g
     id="g7650"
     transform="translate(0,-244.66009)" /><g
     id="g7652"
     transform="translate(0,-244.66009)" /><g
     id="g7654"
     transform="translate(0,-244.66009)" /><g
     id="g7656"
     transform="translate(0,-244.66009)" /><g
     id="g7658"
     transform="translate(0,-244.66009)" /><g
     id="g7660"
     transform="translate(0,-244.66009)" /><g
     id="g7662"
     transform="translate(0,-244.66009)" /><g
     id="g7664"
     transform="translate(0,-244.66009)" /><g
     id="g7666"
     transform="translate(0,-244.66009)" /><g
     id="g7668"
     transform="translate(0,-244.66009)" /><g
     id="g7670"
     transform="translate(0,-244.66009)" /><g
     id="g7672"
     transform="translate(0,-244.66009)" /></svg>